<?xml version="1.0" encoding="UTF-8"?>
<!DOCTYPE svg PUBLIC "-//W3C//DTD SVG 1.1//EN" "http://www.w3.org/Graphics/SVG/1.1/DTD/svg11.dtd">
<!-- Creator: CorelDRAW X7 -->
<svg xmlns="http://www.w3.org/2000/svg" xml:space="preserve" width="225mm" height="225mm" version="1.1" style="shape-rendering:geometricPrecision; text-rendering:geometricPrecision; image-rendering:optimizeQuality; fill-rule:evenodd; clip-rule:evenodd"
viewBox="0 0 22500 22500"
 xmlns:xlink="http://www.w3.org/1999/xlink">
 <defs>
  <style type="text/css">
   <![CDATA[
    .str1 {stroke:#633533;stroke-width:200}
    .str2 {stroke:#633533;stroke-width:150}
    .str0 {stroke:#633533;stroke-width:250}
    .fil3 {fill:none}
    .fil5 {fill:#633533}
    .fil7 {fill:#673519}
    .fil9 {fill:#DB943A}
    .fil1 {fill:#E3E3D4}
    .fil8 {fill:#EDA7A1}
    .fil10 {fill:#F8ECE5}
    .fil2 {fill:#F8ECE5}
    .fil6 {fill:#FCDC96}
    .fil4 {fill:#FEB05B}
    .fil0 {fill:#32BDC3}
   ]]>
  </style>
 </defs>
 <g id="Layer_x0020_1">
  <metadata id="CorelCorpID_0Corel-Layer"/>
  <path class="fil0" d="M3640 253l15220 0c1925,0 3501,1576 3501,3501l0 14992c0,1925 -1576,3501 -3501,3501l-15220 0c-1925,0 -3501,-1576 -3501,-3501l0 -14992c0,-1925 1576,-3501 3501,-3501z"/>
  <g id="_2056271778624">
   <path class="fil1 str0" d="M19528 19776l-14328 -38 2893 -3723c88,-114 -9,-125 -137,-197l-532 -301c-146,-82 -163,-62 -253,53l-3257 4195c-35,37 -87,103 -133,171l-49 63c-30,38 -47,83 -53,128 -2,7 -3,14 -3,19l1 13c0,5 0,10 0,15l6 334c2,147 119,267 266,267l15579 0c147,0 266,-120 266,-267l0 -466c0,-146 -119,-265 -266,-266z"/>
   <g>
    <circle class="fil1 str1" cx="11161" cy="10181" r="8455"/>
    <circle class="fil2 str2" cx="11161" cy="10181" r="7751"/>
    <path class="fil3 str2" d="M4485 9903c-416,-4632 4949,-8285 9142,-6040"/>
    <path class="fil3 str2" d="M4485 9903c-416,-4632 4949,-8285 9142,-6040"/>
    <path class="fil3 str2" d="M8813 4773c2725,-2014 7030,-60 7222,3399"/>
    <path class="fil4" d="M14836 11506l76 0 0 -153 305 0 0 76 76 0 0 77 76 0 0 380 -76 0 0 76 -305 0 0 -76 -76 0 0 -76 -76 0 0 -304zm-7456 2586l228 0 0 -76 152 0 0 -152 152 0 0 -76 152 0 0 609 76 0 0 456 77 0 0 153 76 0 0 152 76 0 0 152 76 0 0 76 76 0 0 76 76 0 0 76 76 0 0 76 76 0 0 76 152 0 0 76 -76 0 0 76 305 0 0 229 -381 0 0 -76 -304 0 0 76 -152 0 0 76 -76 0 0 380 76 0 0 76 76 0 0 76 152 0 0 77 1217 0 0 -77 76 0 0 -76 229 0 0 -76 76 0 0 -76 76 0 0 -76 152 0 0 -152 76 0 0 -76 76 0 0 -152 76 0 0 -229 76 0 0 -304 229 0 0 -76 152 0 0 -76 76 0 0 -152 152 0 0 -76 228 0 0 -76 76 0 0 -77 305 0 0 -152 304 0 0 -76 913 0 0 76 381 0 0 76 304 0 0 76 76 0 0 77 76 0 0 76 76 0 0 76 76 0 0 152 76 0 0 -76 153 0 0 76 152 0 0 76 152 0 0 76 304 0 0 76 761 0 0 -76 228 0 0 -76 153 0 0 -76 76 0 0 -76 76 0 0 -76 76 0 0 -229 -76 0 0 -76 -76 0 0 -76 -229 0 0 -76 -228 0 0 -76 -76 0 0 -76 -228 0 0 -76 -76 0 0 -76 -76 0 0 -76 -77 0 0 -76 -76 0 0 -153 153 0 0 -76 -77 0 0 -76 -76 0 0 -76 -76 0 0 -76 -76 0 0 -76 -76 0 0 -228 -76 0 0 -685 76 0 0 -76 76 0 0 -228 76 0 0 -76 76 0 0 -77 76 0 0 -76 77 0 0 -76 76 0 0 -76 380 0 0 -152 381 0 0 -228 152 0 0 -76 76 0 0 -76 152 0 0 -153 -76 0 0 -76 -76 0 0 -76 -76 0 0 -76 -76 0 0 -76 -153 0 0 -76 -152 0 0 -76 -152 0 0 -76 -152 0 0 -76 -152 0 0 -76 -305 0 0 -76 -152 0 0 -77 -304 0 0 -76 -304 0 0 -76 -153 0 0 -380 -76 0 0 -228 -76 0 0 -76 -76 0 0 -77 -152 0 0 -76 -533 0 0 76 -152 0 0 77 -76 0 0 228 -76 0 0 304 76 0 0 152 76 0 0 229 -152 0 0 -77 -76 0 0 -76 -76 0 0 -76 -913 0 0 76 -609 0 0 76 -456 0 0 77 -305 0 0 76 -152 0 0 76 -304 0 0 76 -153 0 0 76 -152 0 0 76 -152 0 0 76 -152 0 0 76 -152 0 0 76 -152 0 0 76 -76 0 0 76 -153 0 0 77 -76 0 0 76 -76 0 0 76 -152 0 0 76 -76 0 0 76 -76 0 0 76 -76 0 0 76 -76 0 0 76 -76 0 0 76 -77 0 0 76 -76 0 0 76 -76 0 0 153 -76 0 0 76 -76 0 0 76 -76 0 0 152 -76 0 0 152 -76 0 0 76 -76 0 0 228 -76 0 0 153 -76 0 0 760z"/>
    <path class="fil5" d="M16358 13103l76 0 0 -76 152 0 0 381 -228 0 0 -305zm0 -1217l76 0 0 -76 304 0 0 76 76 0 0 304 -380 0 0 -152 -76 0 0 -152zm-5478 3576l-229 0 0 304 -76 0 0 229 -76 0 0 152 -76 0 0 76 -76 0 0 152 -152 0 0 76 -76 0 0 76 -76 0 0 76 -229 0 0 76 -76 0 0 77 -1217 0 0 -77 -152 0 0 -76 -76 0 0 -76 -76 0 0 -380 76 0 0 -76 152 0 0 -76 304 0 0 76 381 0 0 -229 -305 0 0 -76 -152 0 0 -76 -152 0 0 -76 -76 0 0 -76 -76 0 0 -76 -76 0 0 -76 -76 0 0 -76 -77 0 0 -152 -76 0 0 -152 -76 0 0 -305 -76 0 0 -380 -304 0 0 76 -76 0 0 -76 -152 0 0 -989 76 0 0 -153 76 0 0 -228 76 0 0 -76 76 0 0 -152 76 0 0 -152 76 0 0 -76 76 0 0 -76 76 0 0 -153 76 0 0 -76 76 0 0 -76 77 0 0 -76 76 0 0 -76 76 0 0 -76 76 0 0 -76 76 0 0 -76 76 0 0 -76 152 0 0 -76 76 0 0 -76 76 0 0 -77 153 0 0 -76 76 0 0 -76 152 0 0 -76 152 0 0 -76 152 0 0 -76 152 0 0 -76 152 0 0 -76 153 0 0 -76 304 0 0 -76 152 0 0 -76 305 0 0 -77 456 0 0 -76 609 0 0 -76 913 0 0 76 76 0 0 76 76 0 0 77 152 0 0 -229 -76 0 0 -152 -76 0 0 -304 76 0 0 -228 76 0 0 -77 152 0 0 -76 533 0 0 76 152 0 0 77 76 0 0 76 76 0 0 228 76 0 0 380 153 0 0 76 304 0 0 76 304 0 0 77 152 0 0 76 305 0 0 76 152 0 0 76 152 0 0 76 152 0 0 76 152 0 0 76 153 0 0 76 76 0 0 76 76 0 0 76 76 0 0 76 76 0 0 153 -152 0 0 76 -76 0 0 76 -152 0 0 304 76 0 0 152 76 0 0 76 76 0 0 76 152 0 0 77 304 0 0 76 -76 0 0 76 -76 0 0 152 -152 0 0 76 -533 0 0 -76 -228 0 0 152 76 0 0 76 76 0 0 76 229 0 0 457 76 0 0 152 -76 0 0 76 -77 0 0 76 -76 0 0 76 -76 0 0 76 -76 0 0 76 -76 0 0 76 -76 0 0 77 -76 0 0 76 -152 0 0 -76 -76 0 0 -77 -229 0 0 153 76 0 0 76 77 0 0 76 76 0 0 76 76 0 0 76 228 0 0 76 76 0 0 76 228 0 0 76 229 0 0 76 76 0 0 76 76 0 0 229 -76 0 0 76 -76 0 0 76 -76 0 0 76 -153 0 0 76 -228 0 0 76 -761 0 0 -76 -304 0 0 -76 -152 0 0 -76 -152 0 0 -76 -153 0 0 76 -152 0 0 76 -76 0 0 76 -152 0 0 76 -76 0 0 76 -152 0 0 76 -153 0 0 76 -152 0 0 76 -228 0 0 77 -152 0 0 76 -304 0 0 76 -153 0 0 76 -532 0 0 76 -1142 0 0 -76 77 0 0 -152 76 0 0 -533zm3424 -5706l152 0 0 76 152 0 0 152 76 0 0 304 -228 0 0 -76 -76 0 0 -228 -76 0 0 -228zm-1218 -305l-76 0 0 76 -76 0 0 76 -76 0 0 76 -76 0 0 153 -76 0 0 380 -837 0 0 76 -761 0 0 76 -304 0 0 76 -305 0 0 76 -304 0 0 76 -228 0 0 77 -153 0 0 76 -152 0 0 76 -228 0 0 76 -152 0 0 76 -152 0 0 76 -76 0 0 76 -153 0 0 76 -76 0 0 76 -152 0 0 76 -76 0 0 76 -76 0 0 77 -76 0 0 76 -152 0 0 76 -76 0 0 76 -77 0 0 76 -76 0 0 76 -76 0 0 76 -76 0 0 76 -76 0 0 152 -76 0 0 76 -76 0 0 76 -76 0 0 153 -76 0 0 76 -76 0 0 152 -76 0 0 152 -77 0 0 152 -76 0 0 305 -76 0 0 152 -76 0 0 761 76 0 0 152 76 0 0 76 76 0 0 76 77 0 0 76 304 0 0 228 76 0 0 305 76 0 0 76 76 0 0 152 76 0 0 76 76 0 0 152 76 0 0 76 153 0 0 152 -153 0 0 77 -76 0 0 76 -76 0 0 152 -76 0 0 380 76 0 0 152 76 0 0 77 76 0 0 76 153 0 0 76 152 0 0 76 228 0 0 76 761 0 0 -76 304 0 0 -76 229 0 0 -76 152 0 0 -76 152 0 0 -77 76 0 0 -76 76 0 0 -76 1294 0 0 -76 456 0 0 -76 304 0 0 -76 305 0 0 -76 152 0 0 -76 152 0 0 -76 228 0 0 -76 153 0 0 -76 152 0 0 -77 152 0 0 -76 152 0 0 -76 76 0 0 -76 152 0 0 -76 153 0 0 76 228 0 0 76 380 0 0 76 913 0 0 -76 152 0 0 -76 229 0 0 -76 76 0 0 -76 76 0 0 -76 76 0 0 -76 76 0 0 -152 76 0 0 -305 -76 0 0 -76 -76 0 0 -76 -76 0 0 -76 -152 0 0 -76 -229 0 0 -76 -152 0 0 -76 -76 0 0 -76 76 0 0 -76 76 0 0 -76 76 0 0 -77 77 0 0 -76 76 0 0 -76 76 0 0 -152 76 0 0 -76 76 0 0 -76 380 0 0 -152 76 0 0 -761 76 0 0 -76 77 0 0 -228 76 0 0 -685 -76 0 0 -152 -77 0 0 -76 -76 0 0 -77 -76 0 0 -76 -76 0 0 -76 -76 0 0 -76 -76 0 0 -76 -76 0 0 -76 -152 0 0 -76 -76 0 0 -76 -152 0 0 -76 -153 0 0 -76 -152 0 0 -76 -76 0 0 -77 -304 0 0 -76 -152 0 0 -76 -229 0 0 -456 -76 0 0 -152 -76 0 0 -76 -76 0 0 -77 -76 0 0 -76 -76 0 0 -76 -152 0 0 -76 -533 0 0 -76 -837 0 0 76z"/>
    <polygon class="fil6" points="14075,15310 14075,15158 13999,15158 13999,15082 13923,15082 13923,15006 13847,15006 13847,14929 13771,14929 13771,14853 13467,14853 13467,14777 13086,14777 13086,14701 12173,14701 12173,14777 11869,14777 11869,14929 11564,14929 11564,15006 11488,15006 11488,15082 11260,15082 11260,15158 11108,15158 11108,15310 11032,15310 11032,15386 10880,15386 10880,15995 10804,15995 10804,16147 10727,16147 10727,16223 11869,16223 11869,16147 12401,16147 12401,16071 12554,16071 12554,15995 12858,15995 12858,15919 13010,15919 13010,15842 13238,15842 13238,15766 13390,15766 13390,15690 13543,15690 13543,15614 13695,15614 13695,15538 13771,15538 13771,15462 13923,15462 13923,15386 13999,15386 13999,15310 "/>
    <polygon class="fil6" points="15217,14092 15293,14092 15293,14169 15369,14169 15369,14245 15521,14245 15521,14169 15597,14169 15597,14092 15673,14092 15673,14016 15749,14016 15749,13940 15825,13940 15825,13864 15901,13864 15901,13788 15977,13788 15977,13712 16054,13712 16054,13636 16130,13636 16130,13484 16054,13484 16054,13027 15825,13027 15825,12951 15749,12951 15749,12875 15673,12875 15673,12723 15901,12723 15901,12799 16434,12799 16434,12723 16586,12723 16586,12571 16662,12571 16662,12495 16738,12495 16738,12419 16434,12419 16434,12342 16282,12342 16282,12266 16206,12266 16206,12190 16130,12190 16130,12038 16054,12038 16054,11962 15673,11962 15673,12114 15293,12114 15293,12190 15217,12190 15217,12266 15140,12266 15140,12342 15064,12342 15064,12419 14988,12419 14988,12495 14912,12495 14912,12723 14836,12723 14836,12799 14760,12799 14760,13484 14836,13484 14836,13712 14912,13712 14912,13788 14988,13788 14988,13864 15064,13864 15064,13940 15140,13940 15140,14016 15217,14016 "/>
    <polygon class="fil6" points="7380,14092 7380,14321 7532,14321 7532,14397 7608,14397 7608,14321 7912,14321 7912,14701 7988,14701 7988,15006 8064,15006 8064,15158 8140,15158 8140,15310 8217,15310 8217,15386 8293,15386 8293,15462 8369,15462 8369,15538 8445,15538 8445,15614 8521,15614 8521,15690 8673,15690 8673,15766 8901,15766 8901,15690 8749,15690 8749,15614 8673,15614 8673,15538 8597,15538 8597,15462 8521,15462 8521,15386 8445,15386 8445,15310 8369,15310 8369,15158 8293,15158 8293,15006 8217,15006 8217,14853 8140,14853 8140,14397 8064,14397 8064,13788 7912,13788 7912,13864 7760,13864 7760,14016 7608,14016 7608,14092 "/>
    <polygon class="fil7" points="14912,11506 14836,11506 14836,11810 14912,11810 14912,11886 14988,11886 14988,11962 15293,11962 15293,11886 15369,11886 15369,11506 15293,11506 15293,11429 15217,11429 15217,11353 14912,11353 "/>
    <polygon class="fil8" points="16434,11886 16358,11886 16358,12038 16434,12038 16434,12190 16814,12190 16814,11886 16738,11886 16738,11810 16434,11810 "/>
    <polygon class="fil9" points="14304,9984 14380,9984 14380,10212 14456,10212 14456,10288 14684,10288 14684,9984 14608,9984 14608,9832 14456,9832 14456,9756 14304,9756 "/>
    <polygon class="fil10" points="16434,13103 16358,13103 16358,13408 16586,13408 16586,13027 16434,13027 "/>
   </g>
  </g>
 </g>
</svg>
