<svg height="512pt" viewBox="0 0 512 512" width="512pt" xmlns="http://www.w3.org/2000/svg"><path d="m231.140625 28.929688 42.4375 42.433593-21.210937 21.210938-42.4375-42.433594zm0 0" fill="#fde4e4"/><path d="m301 0h30v60h-30zm0 0" fill="#fde4e4"/><path d="m195 512h-60c-74.441406 0-135-60.558594-135-135v-90c0-24.8125 20.1875-45 45-45v30c-8.277344 0-15 6.722656-15 15v30c0 57.890625 47.109375 105 105 105h60c24.8125 0 45 20.1875 45 45s-20.1875 45-45 45zm-160.679688-105.160156c12.890626 43.402344 53.144532 75.160156 100.679688 75.160156h60c8.277344 0 15-6.722656 15-15s-6.722656-15-15-15h-60c-39.976562 0-75.9375-17.460938-100.679688-45.160156zm0 0" fill="#575f64"/><path d="m451 121-30 40.171875v54.914063l30 24.914062h61v-120zm0 0" fill="#009ae4"/><path d="m123.777344 301h-48.777344c-24.8125 0-45-20.1875-45-45s20.1875-45 45-45h48.792969zm0 0" fill="#00c0f1"/><path d="m331 121v30h-30v-30h-70.199219c-71.101562 0-132.300781 53.097656-139.199219 120.898438-3.902343 38.703124 9 77.101562 35.097657 105.300781 25.5 27.898437 61.5 43.800781 99.300781 43.800781h1.800781c28.800781-.300781 58.800781-13.199219 82.199219-35.398438 2.101562-2.101562 4.199219-3.902343 6-6 17.402344-18.601562 28.5-37.800781 38.101562-55.503906 18.597657-33 29.699219-53.097656 70.5-53.097656h26.398438v-120zm0 0" fill="#25d9f8"/><path d="m451 121v120h-26.398438c-40.800781 0-51.902343 20.097656-70.5 53.097656-9.601562 17.703125-20.699218 36.902344-38.101562 55.503906v-198.601562h15v-30zm0 0" fill="#00c0f1"/><path d="m400.855469 28.925781 21.210937 21.210938-42.433594 42.4375-21.210937-21.210938zm0 0" fill="#fcced3"/><path d="m226 331c-41.351562 0-75-33.648438-75-75s33.648438-75 75-75 75 33.648438 75 75-33.648438 75-75 75zm0 0" fill="#00c0f1"/><path d="m316 0h15v60h-15zm0 0" fill="#fcced3"/></svg>